<?xml version="1.0" standalone="no"?>
<!DOCTYPE svg PUBLIC "-//W3C//DTD SVG 20010904//EN"
 "http://www.w3.org/TR/2001/REC-SVG-20010904/DTD/svg10.dtd">
<svg version="1.0" xmlns="http://www.w3.org/2000/svg"
 width="300.000000pt" height="300.000000pt" viewBox="0 0 300.000000 300.000000"
 preserveAspectRatio="xMidYMid meet">

<g transform="translate(0.000000,300.000000) scale(0.100000,-0.100000)"
fill="#000000" stroke="none">
<path d="M0 1500 l0 -1500 1500 0 1500 0 0 1500 0 1500 -1500 0 -1500 0 0
-1500z m402 170 c72 -20 99 -91 56 -145 -19 -24 -20 -29 -6 -39 46 -34 50
-102 9 -148 l-29 -33 -126 -3 -126 -4 0 191 0 191 93 0 c50 0 109 -5 129 -10z
m208 -180 l0 -190 -40 0 -40 0 0 190 0 190 40 0 40 0 0 -190z m740 83 l0 -108
53 58 c48 53 55 58 95 57 23 0 42 -4 42 -8 0 -4 -18 -26 -40 -47 -22 -21 -40
-44 -40 -50 0 -6 20 -45 45 -87 25 -43 45 -80 45 -83 0 -3 -21 -5 -47 -3 -45
3 -48 5 -78 55 l-32 53 -21 -23 c-13 -14 -22 -36 -22 -55 0 -31 -2 -32 -40
-32 l-40 0 0 190 0 190 40 0 40 0 0 -107z m477 84 c76 -41 83 -151 12 -201
l-22 -15 28 -48 c16 -26 35 -58 43 -70 14 -23 14 -23 -39 -23 l-54 0 -35 63
c-28 49 -41 63 -63 65 -27 3 -27 3 -27 -62 l0 -66 -45 0 -45 0 0 191 0 191
108 -4 c76 -3 116 -9 139 -21z m803 -82 l0 -106 53 56 c49 54 54 56 95 53 l42
-3 -44 -51 -45 -51 18 -29 c9 -16 32 -55 50 -86 l32 -58 -48 0 c-48 0 -50 1
-73 43 -37 68 -40 70 -61 43 -11 -13 -19 -38 -19 -55 0 -30 -1 -31 -45 -31
l-45 0 0 183 c0 101 3 187 7 190 3 4 24 7 45 7 l38 0 0 -105z m-1793 4 c58
-22 73 -46 73 -120 0 -77 6 -99 27 -99 10 0 13 -9 11 -27 -2 -19 -10 -29 -28
-33 -26 -7 -80 7 -80 20 0 4 -18 -1 -40 -12 -78 -39 -154 -1 -148 74 4 59 40
83 119 82 49 -1 59 2 57 15 -2 8 -15 22 -30 30 -24 14 -30 14 -61 -1 -34 -16
-35 -16 -58 8 -27 28 -20 39 37 59 48 17 84 18 121 4z m330 0 c30 -11 73 -47
73 -60 0 -5 -14 -16 -31 -24 -28 -15 -32 -15 -48 -1 -23 21 -75 21 -95 0 -21
-20 -20 -83 1 -106 20 -22 70 -24 94 -2 16 14 20 14 48 -1 38 -19 39 -27 1
-58 -77 -65 -205 -35 -239 56 -48 125 71 244 196 196z m963 -11 c107 -54 107
-201 0 -255 -24 -13 -58 -23 -75 -23 -80 0 -155 73 -155 150 0 77 75 150 155
150 17 0 51 -10 75 -22z m317 11 c30 -11 73 -47 73 -61 0 -5 -15 -16 -34 -25
-32 -15 -36 -15 -51 1 -21 21 -79 21 -96 0 -21 -25 -17 -93 6 -110 25 -18 65
-18 93 1 19 14 24 14 52 0 36 -19 37 -25 7 -53 -25 -24 -76 -42 -116 -42 -45
0 -108 38 -126 77 -24 51 -17 134 16 169 45 49 115 66 176 43z"/>
<path d="M270 1564 l0 -35 51 3 c95 6 93 68 -2 68 l-49 0 0 -36z"/>
<path d="M270 1410 l0 -40 48 0 c60 0 91 25 72 59 -9 17 -20 21 -65 21 l-55 0
0 -40z"/>
<path d="M1670 1550 l0 -50 45 0 c32 0 51 6 65 20 42 42 13 80 -61 80 l-49 0
0 -50z"/>
<path d="M753 1413 c-18 -7 -16 -52 2 -59 42 -16 98 35 64 57 -15 9 -46 10
-66 2z"/>
<path d="M2007 1492 c-23 -25 -22 -85 1 -105 25 -22 75 -21 95 1 23 25 22 85
-1 105 -25 22 -75 21 -95 -1z"/>
</g>
</svg>
