<?xml version="1.0" standalone="no"?>
<!DOCTYPE svg PUBLIC "-//W3C//DTD SVG 20010904//EN"
 "http://www.w3.org/TR/2001/REC-SVG-20010904/DTD/svg10.dtd">
<svg version="1.0" xmlns="http://www.w3.org/2000/svg"
 width="220.000000pt" height="329.000000pt" viewBox="0 0 220.000000 329.000000"
 preserveAspectRatio="xMidYMid meet">

<g transform="translate(0.000000,329.000000) scale(0.100000,-0.100000)"
fill="#000000" stroke="none">
<path d="M92 2308 l3 -903 33 -95 c18 -52 53 -132 78 -177 210 -385 660 -723
934 -700 241 20 608 268 803 542 74 105 143 254 167 365 12 52 25 114 31 138
5 24 9 396 9 887 l0 845 -1030 0 -1031 0 3 -902z m1005 751 c12 -13 23 -17 23
-11 0 22 44 34 136 36 l93 2 7 -29 c3 -16 14 -83 24 -149 14 -102 15 -121 3
-125 -8 -3 -47 0 -88 7 -80 14 -114 9 -157 -21 l-28 -20 0 118 c-1 138 -17
136 -27 -2 -5 -74 -8 -85 -22 -79 -38 16 -58 16 -137 4 -46 -7 -87 -10 -91 -7
-6 6 7 116 28 243 l10 60 101 -3 c88 -2 104 -5 125 -24z m-437 -188 l30 -28
-25 -17 c-14 -9 -25 -26 -25 -38 0 -11 -17 -37 -37 -57 -21 -20 -34 -30 -30
-24 5 7 3 21 -2 30 -9 16 -10 16 -11 -3 0 -12 -12 -33 -26 -47 -24 -25 -100
-57 -133 -57 -9 0 -32 -11 -51 -23 -19 -13 -44 -26 -55 -29 -11 -3 -27 -9 -37
-13 -26 -10 214 230 250 251 17 10 32 24 32 30 0 17 49 54 71 54 11 0 33 -13
49 -29z m415 -134 c28 -14 35 -14 85 4 56 19 193 26 217 11 6 -4 9 -19 6 -33
-5 -25 -5 -25 -88 -21 -60 3 -97 0 -131 -12 -43 -14 -51 -14 -101 0 -37 11
-82 15 -134 12 -78 -3 -79 -3 -88 24 -7 19 -6 28 2 32 25 12 202 -1 232 -17z
m-516 -79 c-7 -13 -21 -29 -31 -37 -18 -12 -18 -14 -2 -32 9 -10 23 -19 30
-19 7 0 25 -26 40 -57 15 -32 29 -60 30 -62 2 -2 17 8 34 23 54 45 76 28 64
-50 l-6 -42 46 11 c69 16 73 3 31 -95 -6 -15 -3 -17 21 -12 16 3 42 1 57 -5
26 -10 27 -12 13 -38 -8 -16 -23 -37 -35 -47 -24 -22 -19 -36 13 -36 12 0 31
-6 41 -14 19 -14 18 -16 -18 -50 -21 -20 -43 -36 -48 -36 -21 0 -7 -17 27 -33
19 -10 34 -23 31 -30 -4 -12 -57 -52 -80 -60 -7 -2 -3 -12 11 -27 29 -31 24
-42 -24 -58 -38 -14 -139 -11 -193 4 l-24 7 5 -114 c3 -63 9 -121 13 -130 5
-14 -2 -18 -45 -20 l-52 -4 6 40 c3 22 9 82 13 134 l6 94 -24 -6 c-83 -23
-227 -14 -245 15 -3 5 6 22 20 37 l27 28 -41 18 c-59 27 -66 39 -34 64 15 12
34 21 43 21 9 0 -5 18 -34 43 -55 49 -54 61 6 77 l40 11 -35 40 c-20 21 -36
45 -36 53 0 15 72 32 90 21 14 -9 12 16 -5 45 -8 14 -14 36 -15 49 0 22 3 23
38 18 20 -2 43 -6 51 -8 10 -3 14 10 15 51 1 65 18 74 64 35 34 -28 42 -31 42
-12 0 7 9 30 20 52 l20 39 -37 33 c-20 18 -35 34 -32 36 2 2 18 9 36 16 18 7
38 19 44 27 17 21 21 17 8 -8z m569 -33 c10 -22 9 -25 -14 -31 -33 -8 -37 -2
-23 30 15 32 23 33 37 1z m12 -81 c0 -27 5 -37 20 -41 17 -4 20 -14 20 -54 0
-27 5 -49 10 -49 6 0 10 -35 10 -86 0 -65 -4 -89 -16 -102 -15 -14 -14 -17 10
-35 17 -12 26 -28 26 -45 0 -44 -15 -56 -75 -62 l-57 -5 46 -32 46 -33 0 -97
c0 -87 2 -100 20 -111 24 -14 27 -59 6 -87 -10 -14 -26 -19 -60 -20 -25 0 -46
-2 -46 -5 1 -3 19 -17 40 -32 l40 -28 0 -100 c0 -78 3 -102 14 -106 22 -8 36
-57 23 -80 -16 -29 -27 -34 -82 -34 l-50 0 48 -30 c30 -20 47 -37 47 -50 0
-19 7 -20 106 -20 101 0 105 -1 99 -20 -6 -18 -2 -20 47 -20 59 0 174 47 185
76 3 9 -12 50 -36 97 -35 70 -65 177 -49 177 3 0 19 -7 35 -15 17 -8 57 -20
89 -26 33 -6 66 -15 74 -19 9 -5 28 -1 50 10 49 25 132 39 180 30 23 -4 43
-10 46 -13 3 -3 -22 -20 -56 -38 -36 -19 -86 -59 -123 -99 l-64 -67 -16 29
c-24 42 -60 35 -92 -20 -6 -11 -3 -12 14 -3 17 9 24 8 41 -9 27 -27 26 -42
-15 -119 -76 -144 -178 -226 -370 -295 -19 -7 -17 -9 14 -35 l34 -28 -50 -6
c-51 -6 -176 6 -228 22 -16 5 -59 13 -95 16 -93 10 -204 48 -288 98 -115 69
-154 107 -201 194 -23 43 -51 90 -63 106 -29 36 -14 55 33 38 18 -6 34 -10 36
-8 1 2 -13 20 -34 40 -26 27 -32 37 -19 37 9 0 19 8 23 18 11 30 46 62 69 62
39 0 57 -28 51 -78 -3 -31 -2 -41 6 -33 30 30 138 -17 197 -86 27 -33 31 -34
25 -13 -4 14 -16 37 -27 53 -14 19 -16 27 -6 27 20 0 200 -29 226 -36 19 -5
22 -3 22 21 0 17 -9 34 -25 47 -16 13 -25 29 -25 48 0 19 9 35 25 48 24 19 25
23 25 145 0 122 -1 125 -25 141 -35 23 -35 79 0 102 24 16 25 19 25 138 0 118
-1 123 -25 144 -34 30 -34 74 1 99 24 18 25 21 10 35 -22 23 -23 183 -1 192
10 4 15 20 15 50 0 30 5 46 15 50 9 3 15 19 15 41 0 32 2 35 30 35 28 0 30 -3
30 -36z m710 -4 c25 -25 25 -25 -5 -108 l-25 -70 34 -34 c44 -44 61 -103 81
-283 9 -77 18 -150 21 -163 4 -20 2 -22 -15 -13 -12 7 -102 11 -230 11 l-210
0 -27 -35 c-16 -21 -23 -39 -18 -44 5 -5 44 -11 86 -13 76 -3 77 -3 72 19 -5
18 0 25 21 33 35 13 33 14 37 -16 5 -40 32 -53 59 -29 20 18 22 18 16 3 -5
-15 0 -18 26 -19 20 -1 10 -5 -27 -10 -81 -12 -342 -7 -356 7 -12 12 32 388
56 471 9 33 27 66 49 87 l34 35 -24 60 c-50 121 -37 131 172 131 140 0 155 -2
173 -20z m-701 -1780 c10 0 30 -13 46 -29 23 -25 27 -36 22 -65 -4 -24 -1 -39
9 -47 30 -24 -4 -34 -121 -34 -62 0 -117 3 -121 7 -4 5 0 16 9 26 12 13 15 28
11 53 -5 30 -2 39 20 56 14 12 26 30 26 41 0 20 2 21 41 7 23 -8 49 -15 58
-15z"/>
<path d="M630 2850 c0 -5 7 -10 15 -10 8 0 15 5 15 10 0 6 -7 10 -15 10 -8 0
-15 -4 -15 -10z"/>
<path d="M551 2413 c-16 -30 -15 -81 1 -65 23 23 31 12 26 -37 l-5 -50 29 6
c23 4 28 2 28 -13 0 -11 -7 -32 -15 -48 -20 -37 -19 -37 10 -30 21 5 25 3 25
-14 0 -11 -11 -34 -25 -50 -30 -36 -31 -42 -6 -35 11 3 28 0 37 -5 17 -9 15
-14 -19 -46 l-38 -35 26 -7 c33 -8 28 -24 -19 -50 l-37 -21 45 -12 c65 -16
136 -15 136 3 0 8 -10 22 -22 30 -25 18 -26 16 31 41 l43 19 -22 18 c-12 10
-28 18 -36 18 -23 0 -16 18 16 36 51 31 51 57 -1 68 l-32 6 20 23 c11 12 26
32 32 44 10 20 9 23 -13 29 -14 3 -34 3 -45 -1 -26 -8 -26 -8 0 50 11 25 19
49 16 51 -2 2 -22 -2 -45 -10 l-40 -15 5 57 6 57 -27 -25 -27 -24 -23 29 c-23
29 -23 29 -35 8z"/>
<path d="M530 1370 c-28 -28 -25 -37 16 -42 41 -5 52 9 34 41 -13 26 -25 26
-50 1z"/>
<path d="M525 1290 c3 -5 11 -10 16 -10 6 0 7 5 4 10 -3 6 -11 10 -16 10 -6 0
-7 -4 -4 -10z"/>
<path d="M1667 1205 c-21 -39 -70 -90 -115 -120 -43 -28 -144 -65 -179 -65
-12 0 -23 -4 -23 -9 0 -21 149 23 203 60 18 13 46 38 64 56 26 28 30 30 26 12
-6 -23 -89 -111 -133 -142 -23 -16 -22 -16 8 0 48 26 130 116 153 168 23 53
20 85 -4 40z"/>
<path d="M505 1198 c4 -13 12 -27 17 -33 7 -7 8 -2 3 14 -6 20 -4 23 10 18 9
-4 19 -7 21 -7 2 0 4 -14 4 -31 0 -28 -2 -30 -17 -18 -15 13 -15 12 -3 -10 17
-34 99 -120 125 -132 11 -6 1 7 -23 28 -36 32 -41 40 -30 53 11 12 11 12 -3 2
-14 -10 -19 -8 -33 12 -22 34 -20 43 4 21 18 -16 25 -17 54 -7 37 14 59 16 53
5 -5 -7 22 -12 78 -15 11 -1 29 2 40 7 11 4 17 5 13 0 -4 -4 14 -19 40 -33 36
-19 66 -26 132 -30 47 -2 100 0 118 4 31 9 32 10 17 31 -19 28 -90 70 -128 77
-52 9 -72 18 -89 40 -18 21 -18 20 -7 -11 11 -33 24 -38 87 -36 6 1 12 -4 12
-10 0 -6 3 -8 6 -4 10 9 96 -53 91 -66 -5 -16 -95 -20 -163 -8 -32 6 -71 22
-90 36 -28 21 -38 24 -54 15 -30 -16 -98 7 -114 38 l-13 25 -7 -26 c-14 -57
-92 -42 -83 16 3 23 -1 31 -24 43 -40 20 -52 18 -44 -8z"/>
<path d="M600 1155 c0 -8 7 -15 15 -15 8 0 15 7 15 15 0 8 -7 15 -15 15 -8 0
-15 -7 -15 -15z"/>
<path d="M1125 1000 c33 -5 66 -4 74 0 8 4 -18 8 -60 8 l-74 -1 60 -7z"/>
<path d="M1268 1002 c12 -8 72 -4 72 4 0 2 -19 4 -42 4 -26 0 -38 -4 -30 -8z"/>
<path d="M700 983 c8 -3 22 -11 30 -17 13 -10 13 -9 1 7 -7 9 -21 17 -30 16
-13 0 -14 -1 -1 -6z"/>
<path d="M1465 980 c-3 -6 -17 -8 -30 -6 -17 3 -22 1 -18 -10 3 -8 7 -14 9
-14 12 0 54 25 54 32 0 11 -7 10 -15 -2z"/>
<path d="M758 958 c12 -12 123 -49 135 -45 5 1 -25 14 -67 28 -42 14 -73 22
-68 17z"/>
<path d="M1366 940 c-16 -5 -33 -7 -38 -4 -4 3 -8 1 -8 -4 0 -25 -194 -42
-340 -30 -57 5 -67 4 -40 -3 96 -27 345 -7 440 34 39 17 31 20 -14 7z"/>
<path d="M1544 2487 c3 -13 15 -44 26 -70 l21 -47 83 0 83 0 27 61 c14 33 24
65 20 70 -3 5 -64 9 -136 9 l-130 0 6 -23z"/>
<path d="M337 591 c-15 -14 -74 -48 -130 -76 -69 -34 -106 -58 -114 -75 -9
-17 -12 -72 -10 -180 l2 -154 34 -23 34 -23 956 0 c921 0 957 1 987 19 l31 19
5 154 c7 205 9 202 -124 265 -56 28 -118 63 -137 79 l-34 28 6 -49 c4 -28 12
-79 20 -115 15 -76 32 -67 30 17 l-1 53 26 -18 c15 -11 48 -27 74 -37 83 -31
104 -81 41 -97 -18 -5 -444 -7 -947 -6 -819 3 -917 5 -931 19 -15 14 -14 18 2
38 10 12 53 39 96 60 l78 38 -6 -37 c-3 -20 -1 -49 6 -65 l12 -30 7 45 c4 25
13 63 19 85 13 46 15 96 4 94 -5 -1 -21 -13 -36 -28z m-103 -338 c12 -42 22
-42 36 2 8 24 18 35 31 35 24 0 24 -3 -7 -77 -36 -83 -52 -83 -87 2 -33 79
-32 77 -5 73 15 -2 25 -13 32 -35z m146 -33 c0 -63 -2 -70 -20 -70 -18 0 -20
7 -20 70 0 63 2 70 20 70 18 0 20 -7 20 -70z m144 3 c21 -67 17 -85 -14 -65
-24 15 -57 16 -65 2 -3 -5 -15 -10 -25 -10 -18 0 -18 1 1 58 10 31 21 63 24
70 3 8 16 12 32 10 24 -3 30 -11 47 -65z m150 30 c5 -18 12 -33 16 -33 4 0 11
15 16 33 7 22 17 33 32 35 27 4 27 6 -4 -73 -35 -86 -52 -86 -87 0 -33 79 -32
77 -5 73 15 -2 25 -13 32 -35z m196 22 c0 -9 -9 -15 -25 -15 -31 0 -33 -17 -2
-22 12 -2 22 -10 22 -18 0 -8 -10 -16 -22 -18 -31 -5 -29 -22 2 -22 16 0 25
-6 25 -15 0 -11 -12 -15 -45 -15 l-45 0 0 70 0 70 45 0 c33 0 45 -4 45 -15z
m118 3 c15 -15 15 -51 1 -65 -9 -9 -8 -18 5 -37 16 -25 16 -26 -5 -26 -12 0
-28 8 -35 18 -13 16 -13 16 -14 0 0 -11 -8 -18 -20 -18 -18 0 -20 7 -20 70 l0
70 38 0 c21 0 43 -5 50 -12z m82 -58 c0 -63 -2 -70 -20 -70 -18 0 -20 7 -20
70 0 63 2 70 20 70 18 0 20 -7 20 -70z m130 55 c0 -9 -7 -18 -15 -21 -11 -4
-15 -21 -15 -55 0 -42 -3 -49 -20 -49 -17 0 -20 7 -20 50 0 38 -4 50 -15 50
-8 0 -15 9 -15 20 0 17 7 20 50 20 38 0 50 -4 50 -15z m127 -50 c27 -75 27
-75 3 -75 -11 0 -20 5 -20 10 0 6 -13 10 -30 10 -16 0 -30 -4 -30 -10 0 -5 -9
-10 -20 -10 -25 0 -25 2 1 79 19 57 23 62 48 59 22 -3 29 -12 48 -63z m126 59
c12 -13 -6 -34 -24 -29 -28 9 -23 -10 6 -23 28 -13 34 -52 11 -71 -20 -17 -81
-10 -81 9 0 10 8 14 28 12 34 -3 36 15 2 28 -14 5 -26 15 -26 22 -2 24 3 43
14 50 14 9 61 10 70 2z m145 -35 l18 -42 14 42 c10 32 18 41 36 41 l23 0 -29
-67 c-15 -38 -36 -69 -44 -71 -11 -3 -25 16 -46 63 -17 37 -30 69 -30 71 0 2
9 4 20 4 15 0 26 -12 38 -41z m152 -30 c0 -67 -1 -70 -22 -67 -20 3 -23 9 -25
58 -2 69 1 80 27 80 18 0 20 -6 20 -71z m120 51 c0 -11 -7 -20 -15 -20 -11 0
-15 -12 -15 -50 0 -43 -3 -50 -20 -50 -17 0 -20 7 -20 49 0 34 -4 51 -15 55
-8 3 -15 12 -15 21 0 11 12 15 50 15 43 0 50 -3 50 -20z m129 -42 c26 -76 26
-78 1 -78 -11 0 -20 5 -20 10 0 6 -11 10 -24 10 -14 0 -28 -4 -31 -10 -5 -8
-45 -15 -45 -7 0 1 9 27 20 57 12 30 23 61 25 68 2 6 15 12 29 12 21 0 27 -9
45 -62z"/>
<path d="M471 243 c-1 -6 -4 -18 -7 -27 -4 -11 -1 -16 10 -16 18 0 19 6 6 35
-5 11 -9 15 -9 8z"/>
<path d="M940 246 c0 -9 5 -16 10 -16 6 0 10 4 10 9 0 6 -4 13 -10 16 -5 3
-10 -1 -10 -9z"/>
<path d="M1270 220 c0 -11 5 -20 10 -20 6 0 10 9 10 20 0 11 -4 20 -10 20 -5
0 -10 -9 -10 -20z"/>
<path d="M1946 232 c-9 -26 -1 -41 13 -26 5 5 5 18 1 29 -7 19 -7 19 -14 -3z"/>
</g>
</svg>
